# xmcd CD database file
#
# Track frame offsets:
#	150
#	15278
#	27289
#	41467
#	57595
#	73483
#	88575
#	98621
#	114892
#	126636
#	138155
#	152209
#	166662
#	179937
#	191415
#	205576
#	216866
#	231822
#	242309
#	256824
#	269535
#	280891
#	298188
#	311110
#	323501
#	331283
#	342025
#	351403
#
# Disc length: 4797 seconds
#
# Revision: 2
# Processed by: cddbd v1.5.2PL0 Copyright (c) Steve Scherf et al.
# Submitted via: Feurio! 1.68 - http://www.feurio.com
#
DISCID=9f12bb1c
DTITLE=Various Artist - Feelin On Your Booty Volume 23
DYEAR=1900
DGENRE=R&B
TTITLE0=DJ 1501 - Mims feat. Marques Houston - This Is Why I'm Hot (Remix)
TTITLE1=DJ 1501 - Jason Derulo - Hush
TTITLE2=DJ 1501 - The Deep Side feat. Lil Jon - Hell Yeah
TTITLE3=DJ 1501 - Fabolous feat. Ne-Yo - Make Me Better
TTITLE4=DJ 1501 - Jayal - Here You Say
TTITLE5=DJ 1501 - Von Sway feat. Juice - Here I Am
TTITLE6=DJ 1501 - Autorey - Coming Back For More
TTITLE7=DJ 1501 - Joe - Thats What I Like
TTITLE8=DJ 1501 - LeMarvin - Come Here Girl
TTITLE9=DJ 1501 - Chris Benson - Get Me Up
TTITLE10=DJ 1501 - AM2PM - Dance With Me (DJ Stah Remix)
TTITLE11=DJ 1501 - Rhea feat. Atiba - Damn Right
TTITLE12=DJ 1501 - Uness - Over
TTITLE13=DJ 1501 - Max'C - Can You Feel It
TTITLE14=DJ 1501 - Terrell Carter - I Will
TTITLE15=DJ 1501 - August - Neva Eva (Remix)
TTITLE16=DJ 1501 - Zab - All About You
TTITLE17=DJ 1501 - Thicker Than Water - Don't Stop
TTITLE18=DJ 1501 - Willy Denzey - Closer
TTITLE19=DJ 1501 - Assassin feat. Kyle Rifkin - What It Iz Shorty
TTITLE20=DJ 1501 - Limited Edition - How You Sound
TTITLE21=DJ 1501 - Nasty Clan - Lets Get Ready
TTITLE22=DJ 1501 - Iceberg Slimm feat. Urban Ladies - reminisce wid me
TTITLE23=DJ 1501 - Lumidee feat. Pitbull - Crazy
TTITLE24=DJ 1501 - Caela Santana feat. Surge - Grinding
TTITLE25=DJ 1501 - T-Jay - Get Along
TTITLE26=DJ 1501 - Timbaland feat. Keri Hilson and D.O.E. - Way I Are
TTITLE27=DJ 1501 - Joe D - Keep Waiting
EXTD=
EXTT0=
EXTT1=
EXTT2=
EXTT3=
EXTT4=
EXTT5=
EXTT6=
EXTT7=
EXTT8=
EXTT9=
EXTT10=
EXTT11=
EXTT12=
EXTT13=
EXTT14=
EXTT15=
EXTT16=
EXTT17=
EXTT18=
EXTT19=
EXTT20=
EXTT21=
EXTT22=
EXTT23=
EXTT24=
EXTT25=
EXTT26=
EXTT27=
PLAYORDER=
